<?xml version="1.0" standalone="no"?>
<!DOCTYPE svg PUBLIC "-//W3C//DTD SVG 20010904//EN"
 "http://www.w3.org/TR/2001/REC-SVG-20010904/DTD/svg10.dtd">
<svg version="1.0" xmlns="http://www.w3.org/2000/svg"
 width="256.000000pt" height="256.000000pt" viewBox="0 0 256.000000 256.000000"
 preserveAspectRatio="xMidYMid meet">

<g transform="translate(0.000000,256.000000) scale(0.100000,-0.100000)"
fill="#000000" stroke="none">
<path d="M1195 2538 c-3 -13 -6 -52 -7 -87 l-3 -65 -70 -17 c-75 -19 -89 -16
-99 25 -3 13 -15 45 -25 70 l-20 45 -83 -36 c-46 -19 -84 -37 -86 -38 -2 -2 8
-35 22 -75 14 -39 26 -77 26 -83 0 -7 -24 -27 -52 -45 l-53 -32 -57 57 -58 58
-67 -67 -67 -67 58 -60 c36 -38 55 -66 50 -73 -4 -7 -21 -33 -37 -58 -17 -25
-31 -46 -32 -47 -1 -2 -37 11 -80 27 -43 17 -79 29 -80 28 -6 -8 -57 -170 -54
-172 2 -2 35 -18 72 -35 56 -26 67 -35 62 -50 -3 -11 -9 -39 -13 -62 l-8 -44
-82 -3 -82 -3 0 -77 c0 -124 -1 -122 89 -122 l77 0 12 -45 c21 -79 19 -83 -56
-117 -37 -16 -69 -32 -71 -34 -4 -4 49 -146 60 -158 6 -6 35 -2 77 12 38 12
71 22 75 22 4 0 22 -24 42 -52 l35 -53 -57 -57 -58 -58 65 -65 65 -65 57 56
57 55 50 -36 c28 -21 51 -42 51 -49 0 -7 -11 -41 -25 -76 -14 -36 -23 -70 -21
-76 6 -15 143 -67 160 -61 7 3 23 33 35 66 12 34 27 61 34 61 7 -1 39 -6 72
-13 l60 -13 3 -82 3 -82 89 0 90 0 0 58 c0 69 7 99 25 106 8 3 40 8 72 11 l59
7 34 -73 c18 -41 34 -75 35 -76 2 -4 149 58 157 66 3 3 -4 41 -16 83 l-23 78
47 30 c56 36 61 36 86 9 10 -12 36 -35 57 -52 l39 -30 59 59 c32 32 59 63 59
69 0 6 -22 33 -50 60 -27 27 -50 52 -50 56 0 4 15 30 33 58 37 59 44 60 141
16 32 -15 59 -25 61 -23 3 3 75 170 75 174 0 1 -34 14 -75 29 -42 16 -77 31
-79 34 -3 4 3 36 13 71 l16 65 94 3 c91 3 93 3 87 25 -3 12 -6 55 -6 95 l0 72
-47 0 c-27 0 -64 3 -84 6 -35 6 -36 7 -49 71 -7 36 -9 68 -4 73 5 4 38 20 74
36 36 15 67 29 69 30 6 4 -50 163 -60 169 -5 3 -37 -6 -71 -20 -102 -43 -93
-45 -130 29 l-32 66 59 60 60 60 -67 67 -67 66 -56 -51 c-31 -29 -61 -52 -67
-52 -24 0 -108 54 -108 70 0 10 13 49 29 88 22 53 26 73 18 80 -18 14 -158 62
-166 57 -4 -2 -16 -28 -26 -58 -30 -90 -32 -91 -112 -75 l-68 14 -3 92 -3 92
-89 0 c-85 0 -90 -1 -95 -22z m165 -83 c0 -98 -2 -96 102 -115 74 -13 83 -11
92 24 3 13 15 45 26 70 l19 46 68 -25 c37 -14 69 -28 72 -30 2 -3 -10 -40 -27
-83 -18 -42 -32 -80 -32 -83 0 -4 32 -26 71 -49 l70 -42 54 51 c30 28 60 51
67 51 8 0 36 -23 63 -50 l49 -50 -62 -63 -63 -63 35 -60 c20 -32 39 -66 44
-74 7 -12 21 -9 90 17 l81 31 25 -64 c14 -35 26 -68 26 -72 0 -4 -34 -20 -75
-36 -85 -32 -84 -31 -62 -141 l13 -60 82 -3 82 -3 2 -69 c0 -39 1 -76 2 -82 1
-10 -21 -12 -86 -10 -84 4 -87 3 -93 -20 -3 -12 -11 -52 -19 -86 l-15 -64 52
-22 c29 -13 62 -26 75 -30 28 -9 28 -11 -6 -89 l-28 -66 -79 35 c-43 19 -81
31 -84 26 -3 -4 -26 -36 -50 -71 l-43 -63 56 -56 c31 -30 56 -58 56 -61 0 -3
-22 -28 -50 -55 l-49 -49 -62 54 -61 53 -55 -30 c-30 -16 -59 -34 -64 -40 -5
-6 -1 -38 11 -80 11 -38 20 -73 20 -77 0 -4 -28 -21 -62 -36 l-63 -28 -37 78
c-23 51 -41 77 -50 75 -7 -3 -45 -10 -85 -16 l-71 -11 -7 -80 -7 -79 -72 0
-71 0 -3 77 c-1 42 -7 80 -13 83 -13 8 -149 34 -152 29 -2 -2 -16 -32 -32 -66
-16 -35 -32 -63 -36 -63 -7 0 -121 49 -127 55 -2 1 8 31 22 66 15 34 26 70 25
78 0 9 -27 36 -60 59 l-60 44 -47 -43 c-26 -24 -48 -47 -50 -51 -8 -19 -34 -4
-75 43 l-45 52 54 51 c30 28 54 54 54 59 0 5 -21 37 -46 72 l-45 64 -52 -19
c-29 -11 -60 -25 -70 -31 -11 -6 -20 -9 -21 -7 -17 27 -55 143 -49 148 4 4 29
14 54 24 84 31 86 33 69 117 l-15 74 -83 3 -82 3 0 79 0 80 79 0 80 0 11 58
c6 31 14 67 17 79 4 20 -3 27 -63 54 -38 16 -70 31 -71 33 -3 2 20 75 42 133
3 8 25 3 72 -17 37 -16 73 -30 78 -30 8 0 83 105 93 131 2 5 -19 35 -47 67
-28 32 -51 62 -51 66 0 4 22 30 49 58 l49 50 56 -56 c31 -31 59 -56 62 -56 6
0 123 80 128 89 2 3 -9 39 -26 79 -17 40 -29 74 -27 76 11 7 128 56 135 56 5
0 22 -34 38 -75 16 -41 31 -75 34 -75 2 0 44 9 93 21 l89 21 0 61 c0 105 2
107 81 107 l69 0 0 -85z"/>
<path d="M1110 2285 c-286 -66 -509 -282 -587 -569 -21 -78 -23 -288 -4 -366
75 -295 309 -524 599 -585 86 -19 238 -19 324 -1 240 51 455 230 551 459 47
112 60 181 60 307 -1 132 -21 219 -78 335 -102 209 -284 357 -513 416 -88 22
-265 24 -352 4z m304 -16 c211 -37 406 -173 517 -359 81 -137 120 -321 100
-469 -39 -279 -194 -491 -443 -605 -112 -52 -208 -69 -346 -63 -137 5 -235 34
-347 99 -84 50 -217 180 -264 260 -176 300 -137 659 98 910 181 193 423 273
685 227z"/>
<path d="M1302 2195 c0 -16 2 -22 5 -12 2 9 2 23 0 30 -3 6 -5 -1 -5 -18z"/>
<path d="M1160 2200 c0 -8 5 -22 10 -30 9 -13 10 -13 10 0 0 8 -5 22 -10 30
-9 13 -10 13 -10 0z"/>
<path d="M1270 2194 c0 -8 5 -12 10 -9 6 4 8 11 5 16 -9 14 -15 11 -15 -7z"/>
<path d="M1367 2204 c-4 -4 -7 -14 -7 -23 0 -11 3 -12 11 -4 6 6 10 16 7 23
-2 6 -7 8 -11 4z"/>
<path d="M1420 2195 c0 -18 19 -40 26 -32 4 4 0 15 -9 24 -9 10 -17 13 -17 8z"/>
<path d="M1100 2170 c0 -11 4 -20 9 -20 5 0 7 9 4 20 -3 11 -7 20 -9 20 -2 0
-4 -9 -4 -20z"/>
<path d="M1470 2160 c0 -11 2 -20 4 -20 2 0 6 9 9 20 3 11 1 20 -4 20 -5 0 -9
-9 -9 -20z"/>
<path d="M1050 2165 c0 -5 5 -17 10 -25 5 -8 10 -10 10 -5 0 6 -5 17 -10 25
-5 8 -10 11 -10 5z"/>
<path d="M1534 2154 c-4 -10 -9 -22 -11 -26 -2 -5 0 -8 6 -8 11 0 26 39 17 47
-3 3 -9 -3 -12 -13z"/>
<path d="M1000 2140 c0 -11 4 -20 9 -20 5 0 7 9 4 20 -3 11 -7 20 -9 20 -2 0
-4 -9 -4 -20z"/>
<path d="M1571 2133 c-1 -12 4 -25 9 -28 12 -7 12 2 0 30 -8 19 -9 19 -9 -2z"/>
<path d="M950 2121 c0 -5 5 -13 10 -16 6 -3 10 -2 10 4 0 5 -4 13 -10 16 -5 3
-10 2 -10 -4z"/>
<path d="M1205 2124 c-237 -37 -421 -196 -501 -434 -26 -77 -26 -253 0 -330
51 -149 144 -275 254 -344 140 -87 311 -116 464 -77 276 71 461 306 461 586 0
259 -165 488 -411 569 -77 26 -202 40 -267 30z m264 -50 c167 -56 305 -192
365 -363 24 -70 33 -234 16 -315 -15 -73 -78 -198 -129 -257 -56 -64 -162
-135 -250 -165 -325 -113 -685 93 -756 431 -40 192 16 386 154 524 162 164
382 217 600 145z"/>
<path d="M1208 2053 c12 -2 30 -2 40 0 9 3 -1 5 -23 4 -22 0 -30 -2 -17 -4z"/>
<path d="M1318 2053 c12 -2 30 -2 40 0 9 3 -1 5 -23 4 -22 0 -30 -2 -17 -4z"/>
<path d="M1248 1918 c-2 -86 -7 -123 -15 -125 -7 -3 -17 7 -23 21 -13 35 -30
33 -30 -3 0 -56 55 -81 84 -39 23 32 23 268 1 268 -12 0 -15 -23 -17 -122z"/>
<path d="M1372 1984 c-16 -11 -22 -25 -22 -54 0 -38 12 -53 65 -86 14 -7 16
-17 11 -37 -9 -36 -43 -37 -52 -2 -3 14 -13 25 -20 25 -18 0 -9 -46 14 -72 14
-16 7 -18 -99 -21 -63 -1 30 -3 206 -3 176 0 235 2 132 3 l-188 3 16 22 c31
46 15 107 -36 133 -22 12 -29 22 -27 38 4 30 43 36 51 8 5 -22 27 -29 27 -10
0 24 -32 68 -50 69 -3 0 -16 -7 -28 -16z"/>
<path d="M995 1980 c-3 -6 1 -7 9 -4 18 7 21 14 7 14 -6 0 -13 -4 -16 -10z"/>
<path d="M1093 1968 c-41 -18 -59 -48 -28 -48 11 0 15 -18 17 -82 2 -54 7 -83
16 -86 9 -3 12 19 12 89 0 73 3 94 16 104 9 6 15 18 13 26 -4 14 -10 13 -46
-3z"/>
<path d="M959 1953 c-13 -16 -12 -17 4 -4 9 7 17 15 17 17 0 8 -8 3 -21 -13z"/>
<path d="M1531 1906 c-22 -27 -9 -60 32 -79 38 -18 49 -43 22 -54 -9 -3 -25 3
-35 12 -23 20 -34 16 -24 -9 7 -18 46 -31 69 -22 21 8 35 47 23 69 -5 9 -24
24 -43 31 -25 11 -33 19 -29 30 8 21 34 20 50 -1 16 -22 32 -8 18 15 -14 22
-67 27 -83 8z"/>
<path d="M1655 1900 c10 -11 20 -20 23 -20 3 0 -3 9 -13 20 -10 11 -20 20 -23
20 -3 0 3 -9 13 -20z"/>
<path d="M910 1820 l0 -70 40 0 c22 0 40 5 40 10 0 6 -11 10 -25 10 -24 0 -25
3 -25 60 0 47 -3 60 -15 60 -12 0 -15 -14 -15 -70z"/>
<path d="M848 1843 c-18 -21 -31 -43 -25 -43 2 0 13 14 25 30 25 33 24 41 0
13z"/>
<path d="M1140 1780 c0 -16 5 -30 10 -30 6 0 10 14 10 30 0 17 -4 30 -10 30
-5 0 -10 -13 -10 -30z"/>
<path d="M1300 1780 c0 -16 5 -30 10 -30 6 0 10 14 10 30 0 17 -4 30 -10 30
-5 0 -10 -13 -10 -30z"/>
<path d="M1002 1778 c2 -13 8 -23 13 -23 6 0 11 10 13 23 2 15 -2 22 -13 22
-11 0 -15 -7 -13 -22z"/>
<path d="M1470 1775 c0 -14 5 -25 10 -25 6 0 10 11 10 25 0 14 -4 25 -10 25
-5 0 -10 -11 -10 -25z"/>
<path d="M1637 1776 c-6 -15 1 -26 15 -26 11 0 10 27 -1 34 -5 3 -11 0 -14 -8z"/>
<path d="M785 1740 c-3 -5 -1 -10 4 -10 6 0 11 5 11 10 0 6 -2 10 -4 10 -3 0
-8 -4 -11 -10z"/>
<path d="M977 1713 c-3 -5 38 -7 91 -5 179 5 198 8 55 10 -78 1 -144 -1 -146
-5z"/>
<path d="M1348 1713 c45 -2 119 -2 165 0 45 1 8 3 -83 3 -91 0 -128 -2 -82 -3z"/>
<path d="M1067 1669 c-24 -14 -21 -48 9 -93 22 -32 25 -43 15 -57 -18 -31 -13
-49 14 -49 20 0 25 5 25 25 0 17 5 25 18 25 10 0 27 7 38 15 18 14 18 15 1 46
-12 22 -15 35 -7 43 5 5 10 14 10 18 0 13 -28 9 -33 -4 -3 -9 -11 -7 -28 8
-35 31 -43 33 -62 23z m61 -42 c10 -11 9 -17 -3 -27 -13 -11 -18 -10 -30 6 -8
10 -15 27 -15 37 0 14 4 16 18 8 10 -5 24 -16 30 -24z m44 -69 c-11 -11 -42 1
-42 16 0 23 13 26 32 9 10 -9 15 -20 10 -25z"/>
<path d="M1358 1638 c-35 -32 -40 -58 -12 -58 8 0 14 5 14 10 0 17 26 11 45
-10 15 -16 15 -22 5 -35 -7 -8 -18 -15 -25 -15 -7 0 -19 -8 -26 -17 -12 -15
-12 -16 3 -10 17 6 43 -15 31 -26 -3 -4 -1 -7 5 -7 7 0 12 6 12 13 0 6 7 21
15 31 15 19 16 19 49 -13 24 -23 40 -32 52 -27 15 6 12 12 -20 45 -34 35 -36
38 -19 53 10 8 26 18 36 21 25 9 21 26 -5 19 -18 -4 -20 -2 -16 16 8 31 -10
28 -22 -3 -13 -35 -38 -42 -62 -17 -21 21 -17 42 8 42 8 0 12 5 9 10 -12 19
-41 10 -77 -22z"/>
<path d="M1592 1301 c-2 -113 -4 -127 -24 -150 l-22 -26 27 26 28 25 -4 125
-3 124 -2 -124z"/>
<path d="M1388 1338 c-36 -70 -46 -109 -13 -51 l16 28 -6 -37 c-5 -34 -3 -38
15 -38 11 0 20 -5 20 -11 0 -7 -10 -9 -25 -7 -16 3 -25 1 -25 -7 0 -8 9 -10
25 -7 19 3 25 0 25 -13 0 -14 -7 -16 -31 -13 -26 4 -32 1 -40 -20 -5 -14 -8
-30 -5 -36 3 -7 5 -6 5 2 1 7 15 12 35 12 32 0 35 -3 39 -32 l4 -33 1 34 c2
32 3 33 37 29 22 -2 35 0 35 7 0 7 -12 10 -29 7 -16 -2 -32 1 -35 7 -5 7 4 11
23 11 23 0 31 5 31 18 0 13 -2 14 -9 4 -9 -15 -41 -13 -44 3 -1 6 8 11 21 13
20 3 22 7 16 35 -8 41 -12 47 -30 47 -8 0 -14 5 -14 10 0 6 6 10 14 10 8 0 16
6 18 12 5 13 -23 88 -32 88 -3 0 -22 -33 -42 -72z m29 -10 c-3 -7 -5 -2 -5 12
0 14 2 19 5 13 2 -7 2 -19 0 -25z m33 12 c0 -5 -5 -10 -11 -10 -5 0 -7 5 -4
10 3 6 8 10 11 10 2 0 4 -4 4 -10z m-30 -64 c0 -16 -6 -26 -15 -26 -17 0 -20
16 -5 25 7 4 7 12 0 25 -14 27 -12 34 5 16 8 -8 15 -26 15 -40z m37 -22 c-9
-9 -28 6 -21 18 4 6 10 6 17 -1 6 -6 8 -13 4 -17z m13 -24 c0 -5 -9 -10 -20
-10 -11 0 -20 5 -20 10 0 6 9 10 20 10 11 0 20 -4 20 -10z m-50 -70 c0 -5 -13
-10 -30 -10 -16 0 -30 5 -30 10 0 6 14 10 30 10 17 0 30 -4 30 -10z"/>
<path d="M1125 1360 c4 -6 11 -8 16 -5 14 9 11 15 -7 15 -8 0 -12 -5 -9 -10z"/>
<path d="M1160 1339 c0 -5 5 -7 10 -4 6 3 10 8 10 11 0 2 -4 4 -10 4 -5 0 -10
-5 -10 -11z"/>
<path d="M990 1275 c0 -26 38 -115 49 -115 3 0 6 15 6 33 l0 32 102 10 102 10
-21 28 c-24 33 -38 35 -38 3 0 -19 -5 -23 -27 -22 -16 0 -43 -3 -60 -8 -32 -7
-33 -6 -33 23 0 29 -2 31 -40 31 -36 0 -40 -2 -40 -25z"/>
<path d="M1188 1209 c-16 -11 -28 -26 -28 -32 0 -8 3 -8 11 0 6 6 18 9 25 6
10 -3 12 0 9 10 -5 11 0 14 22 11 15 -2 20 -1 10 2 -9 3 -15 10 -12 15 10 15
-9 9 -37 -12z"/>
<path d="M1489 1083 c-13 -16 -12 -17 4 -4 16 13 21 21 13 21 -2 0 -10 -8 -17
-17z"/>
<path d="M1330 980 c-8 -5 -10 -10 -5 -10 6 0 17 5 25 10 8 5 11 10 5 10 -5 0
-17 -5 -25 -10z"/>
<path d="M1612 2109 c-7 -11 -11 -23 -9 -25 7 -7 29 24 25 36 -2 6 -9 1 -16
-11z"/>
<path d="M930 2095 c7 -9 15 -13 17 -11 7 7 -7 26 -19 26 -6 0 -6 -6 2 -15z"/>
<path d="M900 2081 c0 -6 4 -13 10 -16 6 -3 7 1 4 9 -7 18 -14 21 -14 7z"/>
<path d="M1655 2079 c-11 -17 1 -21 15 -4 8 9 8 15 2 15 -6 0 -14 -5 -17 -11z"/>
<path d="M1700 2045 c-8 -9 -8 -15 -2 -15 6 0 13 -8 15 -17 4 -17 5 -17 6 0 0
9 6 17 11 17 6 0 10 4 10 10 0 5 -7 6 -17 3 -11 -4 -14 -3 -9 5 10 17 1 15
-14 -3z"/>
<path d="M860 2035 c7 -9 15 -13 17 -11 7 7 -7 26 -19 26 -6 0 -6 -6 2 -15z"/>
<path d="M1741 2007 c-13 -21 -12 -21 5 -5 10 10 16 20 13 22 -3 3 -11 -5 -18
-17z"/>
<path d="M785 2001 c-2 -4 4 -12 13 -18 13 -7 21 -7 29 2 9 10 6 14 -13 18
-13 2 -26 1 -29 -2z"/>
<path d="M1773 1975 c0 -13 3 -22 8 -19 5 3 9 14 9 25 0 10 -4 19 -9 19 -5 0
-8 -11 -8 -25z"/>
<path d="M765 1960 c3 -5 14 -10 23 -10 15 0 15 2 2 10 -20 13 -33 13 -25 0z"/>
<path d="M1800 1938 c-12 -22 -12 -22 6 -6 10 10 15 20 12 24 -4 3 -12 -5 -18
-18z"/>
<path d="M720 1905 c7 -8 17 -15 22 -15 6 0 5 7 -2 15 -7 8 -17 15 -22 15 -6
0 -5 -7 2 -15z"/>
<path d="M700 1886 c0 -2 7 -9 15 -16 9 -7 15 -8 15 -2 0 5 -7 12 -15 16 -8 3
-15 4 -15 2z"/>
<path d="M1868 1845 c-3 -14 -1 -25 3 -25 5 0 9 4 9 9 0 5 3 16 6 25 3 9 2 16
-4 16 -5 0 -12 -11 -14 -25z"/>
<path d="M670 1852 c0 -5 11 -14 25 -20 14 -6 25 -10 25 -8 0 2 -11 11 -25 20
-14 9 -25 13 -25 8z"/>
<path d="M1890 1785 c-7 -9 -10 -18 -7 -21 3 -3 10 4 17 15 13 25 8 27 -10 6z"/>
<path d="M650 1780 c0 -5 9 -10 20 -10 11 0 20 5 20 10 0 6 -9 10 -20 10 -11
0 -20 -4 -20 -10z"/>
<path d="M1909 1753 c-13 -16 -12 -17 4 -4 9 7 17 15 17 17 0 8 -8 3 -21 -13z"/>
<path d="M633 1723 c9 -2 23 -2 30 0 6 3 -1 5 -18 5 -16 0 -22 -2 -12 -5z"/>
<path d="M1918 1713 c-10 -2 -18 -9 -18 -14 0 -13 13 -11 36 6 19 14 14 17
-18 8z"/>
<path d="M616 1675 c-11 -8 -15 -15 -9 -15 19 0 43 12 43 21 0 13 -12 11 -34
-6z"/>
<path d="M1929 1643 c-13 -15 -12 -15 9 -4 23 12 28 21 13 21 -5 0 -15 -7 -22
-17z"/>
<path d="M628 1632 c-10 -2 -18 -8 -18 -13 0 -11 11 -11 30 1 18 11 11 18 -12
12z"/>
<path d="M1925 1610 c-8 -13 15 -13 35 0 12 8 11 10 -7 10 -12 0 -25 -4 -28
-10z"/>
<path d="M603 1573 c9 -2 23 -2 30 0 6 3 -1 5 -18 5 -16 0 -22 -2 -12 -5z"/>
<path d="M600 1540 c-8 -5 -12 -11 -9 -14 3 -3 14 1 25 9 21 16 8 20 -16 5z"/>
<path d="M605 1480 c-16 -18 -16 -20 -2 -20 9 0 21 9 27 20 6 11 7 20 2 20 -5
0 -17 -9 -27 -20z"/>
<path d="M1943 1483 c9 -2 23 -2 30 0 6 3 -1 5 -18 5 -16 0 -22 -2 -12 -5z"/>
<path d="M1920 1450 c0 -5 11 -10 25 -10 14 0 25 5 25 10 0 6 -11 10 -25 10
-14 0 -25 -4 -25 -10z"/>
<path d="M605 1440 c-3 -5 -2 -10 4 -10 5 0 13 5 16 10 3 6 2 10 -4 10 -5 0
-13 -4 -16 -10z"/>
<path d="M1928 1423 c6 -2 18 -2 25 0 6 3 1 5 -13 5 -14 0 -19 -2 -12 -5z"/>
<path d="M618 1403 c7 -3 16 -2 19 1 4 3 -2 6 -13 5 -11 0 -14 -3 -6 -6z"/>
<path d="M1920 1380 c-13 -9 -13 -10 0 -10 8 0 22 5 30 10 13 9 13 10 0 10 -8
0 -22 -5 -30 -10z"/>
<path d="M631 1359 c-13 -5 -22 -11 -20 -14 8 -7 49 7 49 16 0 5 -1 9 -2 8 -2
0 -14 -5 -27 -10z"/>
<path d="M1910 1340 c8 -5 22 -10 30 -10 13 0 13 1 0 10 -8 5 -22 10 -30 10
-13 0 -13 -1 0 -10z"/>
<path d="M1105 880 c3 -5 8 -10 11 -10 2 0 4 5 4 10 0 6 -5 10 -11 10 -5 0 -7
-4 -4 -10z"/>
<path d="M1486 875 c-3 -8 -1 -15 4 -15 6 0 10 7 10 15 0 8 -2 15 -4 15 -2 0
-6 -7 -10 -15z"/>
<path d="M1404 860 c0 -13 4 -16 10 -10 7 7 7 13 0 20 -6 6 -10 3 -10 -10z"/>
<path d="M1190 850 c0 -5 5 -10 11 -10 5 0 7 5 4 10 -3 6 -8 10 -11 10 -2 0
-4 -4 -4 -10z"/>
<path d="M76 1655 c-10 -26 -7 -82 6 -110 14 -32 4 -43 -20 -22 -27 25 -52 22
-52 -7 0 -25 40 -72 71 -81 13 -4 19 -15 18 -33 0 -15 -3 -21 -6 -14 -3 7 -18
19 -34 28 -26 13 -30 13 -35 0 -8 -20 33 -72 66 -86 16 -6 30 -20 33 -31 6
-23 -1 -24 -27 -4 -27 20 -36 19 -36 -6 0 -20 45 -72 82 -94 9 -5 19 -20 23
-33 l7 -23 -34 21 c-41 25 -48 25 -48 1 0 -26 53 -81 79 -81 11 0 25 -9 31
-19 17 -33 12 -43 -15 -25 -34 22 -49 10 -30 -26 15 -29 61 -60 88 -60 8 0 18
-7 21 -16 9 -24 8 -24 -19 -14 -16 6 -26 6 -31 -1 -10 -17 30 -63 62 -73 42
-12 57 -21 62 -34 2 -8 -6 -10 -28 -5 -28 5 -32 3 -28 -13 5 -26 68 -66 94
-60 15 4 27 -3 42 -24 l22 -29 -35 -3 c-20 -2 -36 -7 -37 -13 -2 -16 54 -39
94 -38 28 0 43 -6 64 -28 l28 -29 -37 0 c-20 0 -37 -4 -37 -8 0 -32 104 -68
120 -42 6 9 15 7 40 -11 l32 -24 -31 -3 c-40 -4 -40 -27 -1 -47 34 -17 87 -20
92 -4 4 12 78 -19 78 -33 0 -4 -15 -8 -34 -8 -37 0 -55 -15 -38 -32 17 -17
101 -16 112 1 7 13 14 12 49 -4 41 -18 46 -35 10 -35 -31 0 -19 -32 16 -41 30
-9 76 -2 86 12 6 10 89 -20 89 -33 0 -4 -9 -8 -19 -8 -25 0 -38 -20 -20 -31
31 -20 63 -22 94 -5 30 16 35 16 70 2 23 -10 35 -20 29 -25 -5 -5 -47 -21 -94
-35 -47 -15 -92 -31 -102 -36 -9 -5 -81 -28 -160 -50 -78 -23 -147 -46 -153
-51 -7 -7 0 -8 20 -3 52 12 277 81 340 103 179 64 184 65 234 52 25 -6 75 -23
111 -36 67 -25 368 -115 385 -115 32 0 -27 24 -135 54 -69 19 -181 54 -250 77
l-125 42 33 16 c31 14 34 14 43 -2 13 -22 82 -23 104 -1 19 19 11 31 -25 36
-22 4 -20 7 24 27 31 15 51 19 55 13 16 -26 110 -21 119 6 2 7 -10 18 -28 25
l-31 14 41 16 c35 14 43 14 69 1 35 -18 94 -7 99 18 3 18 -37 32 -62 22 -32
-12 -15 5 29 29 34 19 45 22 45 11 0 -19 53 -18 91 2 37 18 33 39 -7 39 -40 0
-55 17 -48 53 6 31 -4 46 -23 34 -17 -11 -43 -69 -43 -95 0 -16 -9 -28 -25
-35 -38 -17 -47 -15 -35 7 14 28 12 51 -4 51 -19 0 -53 -48 -57 -80 -3 -18
-18 -33 -54 -52 -27 -15 -53 -28 -57 -28 -4 0 0 16 8 36 12 27 12 39 4 48 -8
8 -18 4 -36 -17 -23 -26 -29 -45 -25 -75 2 -12 -91 -62 -115 -62 -8 0 -8 11 1
37 18 52 2 67 -31 30 -13 -15 -25 -36 -26 -45 0 -9 -1 -24 -2 -32 -2 -25 -65
-34 -108 -16 -30 13 -38 22 -38 42 0 31 -35 84 -56 84 -18 0 -18 -27 0 -62 18
-34 13 -35 -58 -2 -43 19 -56 31 -56 47 0 31 -36 87 -56 87 -17 0 -16 -27 2
-73 6 -15 -2 -14 -50 10 -42 20 -56 32 -56 49 0 26 -42 91 -55 84 -6 -3 -9
-20 -9 -37 1 -38 2 -38 -36 -18 -23 12 -30 22 -30 46 0 39 -26 89 -46 89 -13
0 -15 -9 -12 -40 2 -22 1 -40 -2 -40 -3 0 -21 13 -40 29 -30 24 -34 34 -32 65
4 37 -19 86 -38 86 -6 0 -10 -18 -10 -40 0 -22 -3 -40 -7 -40 -4 0 -19 12 -34
26 -25 24 -26 26 -12 66 14 40 10 78 -8 78 -9 0 -19 -19 -34 -65 -6 -19 -9
-18 -36 13 -20 23 -28 40 -24 50 4 10 10 36 12 60 5 35 3 42 -11 42 -10 0 -21
-13 -27 -30 -13 -37 -22 -38 -43 -5 -15 23 -15 28 -1 55 16 32 20 86 6 94 -12
8 -31 -16 -40 -50 l-7 -27 -21 33 c-21 33 -21 33 -2 64 24 39 26 96 3 96 -8 0
-22 -17 -31 -37 l-15 -37 -14 34 c-13 30 -13 35 5 54 27 29 44 77 32 89 -6 6
-21 -1 -42 -22 -17 -18 -33 -31 -34 -29 -2 2 -6 15 -10 30 -5 21 -2 29 14 37
36 20 70 111 41 111 -13 0 -50 -37 -66 -66 -10 -17 -12 -14 -19 25 -6 35 -4
46 9 53 16 9 56 78 56 98 0 20 -29 10 -53 -20 -31 -36 -33 -36 -40 -8 -5 17 2
30 28 53 37 35 54 80 36 98 -8 8 -19 3 -41 -18 -16 -16 -33 -26 -36 -22 -3 3
-1 26 4 52 10 49 3 96 -15 102 -6 2 -13 -3 -17 -12z"/>
<path d="M2459 1633 c-10 -26 -9 -45 8 -118 l6 -30 -37 33 c-46 40 -56 40 -56
0 0 -23 10 -40 38 -67 30 -29 36 -41 32 -64 l-5 -29 -32 36 c-17 20 -36 36
-42 36 -27 0 3 -78 39 -103 17 -12 20 -21 14 -56 -4 -22 -9 -41 -13 -41 -3 0
-13 13 -23 29 -9 16 -26 34 -37 40 -19 11 -21 9 -21 -20 0 -22 10 -41 34 -65
31 -31 34 -38 24 -64 l-10 -29 -25 29 c-50 60 -73 23 -28 -44 28 -41 29 -49
14 -78 -10 -19 -12 -18 -27 14 -18 36 -45 44 -50 15 -2 -9 6 -37 17 -60 25
-52 25 -51 5 -83 l-17 -25 -18 41 c-10 23 -23 39 -29 35 -14 -8 -13 -68 2
-100 9 -20 8 -31 -2 -50 -17 -32 -21 -31 -42 5 -9 17 -22 30 -28 30 -12 0 -13
-60 -1 -93 8 -19 4 -30 -19 -58 -33 -37 -33 -37 -46 11 -6 20 -16 35 -24 35
-15 0 -18 -31 -9 -98 3 -23 -3 -34 -27 -53 l-32 -25 5 46 c4 35 2 45 -9 45
-20 0 -38 -43 -38 -90 0 -32 -5 -43 -31 -60 -41 -30 -31 -36 15 -9 24 14 36
17 36 9 0 -16 74 -7 95 10 27 22 18 40 -20 40 l-36 0 33 29 c26 22 40 27 64
24 37 -6 94 21 94 44 0 13 -8 15 -40 10 l-40 -5 24 30 c16 21 34 32 56 33 36
3 85 35 85 56 0 10 -10 13 -33 11 -30 -2 -31 -1 -20 18 7 11 21 20 31 20 27 0
75 28 87 50 16 29 4 41 -26 29 -22 -8 -25 -7 -20 7 3 8 6 18 6 20 0 2 10 4 23
4 28 0 87 55 87 81 0 23 -9 24 -38 3 -29 -20 -35 -15 -19 19 6 15 20 27 30 27
29 0 56 18 72 50 28 54 10 67 -39 29 -27 -21 -34 -12 -16 22 6 10 17 19 24 19
17 0 76 66 76 85 0 24 -17 26 -44 4 -21 -17 -26 -18 -26 -5 0 8 6 20 13 25 62
51 85 74 90 91 8 31 -7 32 -48 4 -28 -19 -36 -21 -31 -9 3 9 6 21 6 26 0 5 6
9 14 9 20 0 76 67 76 90 0 25 -27 26 -52 3 -25 -23 -30 -13 -19 38 16 73 -8
140 -30 82z"/>
</g>
</svg>
